<?xml version="1.0" encoding="UTF-8" standalone="no"?>
<!-- Created with Inkscape (http://www.inkscape.org/) -->
<svg
   xmlns:dc="http://purl.org/dc/elements/1.1/"
   xmlns:cc="http://creativecommons.org/ns#"
   xmlns:rdf="http://www.w3.org/1999/02/22-rdf-syntax-ns#"
   xmlns:svg="http://www.w3.org/2000/svg"
   xmlns="http://www.w3.org/2000/svg"
   xmlns:xlink="http://www.w3.org/1999/xlink"
   xmlns:sodipodi="http://sodipodi.sourceforge.net/DTD/sodipodi-0.dtd"
   xmlns:inkscape="http://www.inkscape.org/namespaces/inkscape"
   width="640px"
   height="480px"
   id="svg2383"
   sodipodi:version="0.32"
   inkscape:version="0.46"
   enable-background="new"
   sodipodi:docname="logo.svg"
   inkscape:output_extension="org.inkscape.output.svg.inkscape"
   inkscape:export-filename="/Users/cesar/Sources/myceltx.com/trunk/docs/logo.png"
   inkscape:export-xdpi="90"
   inkscape:export-ydpi="90">
  <defs
     id="defs2385">
    <linearGradient
       id="linearGradient3717">
      <stop
         style="stop-color:#bbbbbb;stop-opacity:1;"
         offset="0"
         id="stop3719" />
      <stop
         style="stop-color:#eeeeee;stop-opacity:1;"
         offset="1"
         id="stop3721" />
    </linearGradient>
    <linearGradient
       id="linearGradient3548">
      <stop
         style="stop-color:#000000;stop-opacity:1;"
         offset="0"
         id="stop3550" />
      <stop
         style="stop-color:#000000;stop-opacity:0.53333336;"
         offset="1"
         id="stop3552" />
    </linearGradient>
    <linearGradient
       id="linearGradient3538">
      <stop
         style="stop-color:#ff8800;stop-opacity:1;"
         offset="0"
         id="stop3540" />
      <stop
         style="stop-color:#ff8800;stop-opacity:0.53333336;"
         offset="1"
         id="stop3542" />
    </linearGradient>
    <linearGradient
       id="linearGradient3527">
      <stop
         style="stop-color:#888888;stop-opacity:1;"
         offset="0"
         id="stop3529" />
      <stop
         style="stop-color:#888888;stop-opacity:0.53333336;"
         offset="1"
         id="stop3531" />
    </linearGradient>
    <linearGradient
       id="linearGradient3349">
      <stop
         style="stop-color:#888888;stop-opacity:1;"
         offset="0"
         id="stop3351" />
      <stop
         style="stop-color:#888888;stop-opacity:0.53333336;"
         offset="1"
         id="stop3353" />
    </linearGradient>
    <linearGradient
       id="linearGradient3337">
      <stop
         style="stop-color:#ff8800;stop-opacity:1;"
         offset="0"
         id="stop3339" />
      <stop
         style="stop-color:#ff8800;stop-opacity:0.53333336;"
         offset="1"
         id="stop3341" />
    </linearGradient>
    <linearGradient
       id="linearGradient3323">
      <stop
         style="stop-color:#000000;stop-opacity:1;"
         offset="0"
         id="stop3325" />
      <stop
         style="stop-color:#000000;stop-opacity:0.53333336;"
         offset="1"
         id="stop3327" />
    </linearGradient>
    <linearGradient
       id="linearGradient3256">
      <stop
         style="stop-color:#ffffff;stop-opacity:1;"
         offset="0"
         id="stop3258" />
      <stop
         style="stop-color:#ffffff;stop-opacity:0.60629922;"
         offset="1"
         id="stop3260" />
    </linearGradient>
    <inkscape:perspective
       sodipodi:type="inkscape:persp3d"
       inkscape:vp_x="-182.79509 : 303.8134 : 1"
       inkscape:vp_y="5.8367307e-14 : 779.57021 : 0"
       inkscape:vp_z="376.91917 : 285.74248 : 1"
       inkscape:persp3d-origin="124.81382 : 170.45488 : 1"
       id="perspective2391" />
    <filter
       inkscape:collect="always"
       id="filter3252">
      <feBlend
         inkscape:collect="always"
         mode="lighten"
         in2="BackgroundImage"
         id="feBlend3254" />
    </filter>
    <linearGradient
       inkscape:collect="always"
       xlink:href="#linearGradient3527"
       id="linearGradient3535"
       x1="535.4043"
       y1="282.8942"
       x2="535.4043"
       y2="262.85123"
       gradientUnits="userSpaceOnUse" />
    <linearGradient
       inkscape:collect="always"
       xlink:href="#linearGradient3538"
       id="linearGradient3544"
       x1="112.45364"
       y1="282.15802"
       x2="112.45364"
       y2="235.72217"
       gradientUnits="userSpaceOnUse" />
    <linearGradient
       inkscape:collect="always"
       xlink:href="#linearGradient3548"
       id="linearGradient3554"
       x1="332.11554"
       y1="283.44327"
       x2="332.11554"
       y2="218.11124"
       gradientUnits="userSpaceOnUse" />
    <linearGradient
       inkscape:collect="always"
       xlink:href="#linearGradient3538"
       id="linearGradient3576"
       gradientUnits="userSpaceOnUse"
       x1="112.45364"
       y1="282.15802"
       x2="112.45364"
       y2="235.72217"
       gradientTransform="translate(-0.7077999,125.33787)" />
    <linearGradient
       inkscape:collect="always"
       xlink:href="#linearGradient3548"
       id="linearGradient3578"
       gradientUnits="userSpaceOnUse"
       x1="332.11554"
       y1="283.44327"
       x2="332.11554"
       y2="218.11124"
       gradientTransform="translate(-0.7077999,125.33787)" />
    <linearGradient
       inkscape:collect="always"
       xlink:href="#linearGradient3717"
       id="linearGradient3815"
       gradientUnits="userSpaceOnUse"
       gradientTransform="translate(1,-138)"
       x1="298.37033"
       y1="388.08313"
       x2="298.37033"
       y2="476.16425" />
    <mask
       maskUnits="userSpaceOnUse"
       id="mask3805">
      <g
         style="opacity:1"
         id="g3807"
         transform="translate(10.5,-10.5)">
        <g
           id="g3809">
          <rect
             style="fill:#ffffff;fill-opacity:1;stroke:none;stroke-opacity:1"
             id="rect3811"
             width="581"
             height="169"
             x="16"
             y="176" />
          <path
             style="fill:url(#linearGradient3815);fill-opacity:1;fill-rule:evenodd;stroke:none;stroke-width:1px;stroke-linecap:butt;stroke-linejoin:miter;stroke-opacity:1"
             d="M 29.961941,271.7969 C 113.4321,301.71599 407.57135,229.21417 573.72706,256.24055 C 584.46124,292.14756 569.4617,341.74321 506.48275,337.96006 C 418.02928,332.70565 220.45449,334.16684 126.11763,337.63901 C 12.145666,341.83388 13.378919,283.8374 29.961941,271.7969 z"
             id="path3813"
             sodipodi:nodetypes="ccssc" />
        </g>
      </g>
    </mask>
    <linearGradient
       inkscape:collect="always"
       xlink:href="#linearGradient3717"
       id="linearGradient3843"
       gradientUnits="userSpaceOnUse"
       gradientTransform="translate(1,-138)"
       x1="298.37033"
       y1="388.08313"
       x2="298.37033"
       y2="476.16425" />
  </defs>
  <sodipodi:namedview
     id="base"
     pagecolor="#ffffff"
     bordercolor="#666666"
     borderopacity="1.0"
     inkscape:pageopacity="0.0"
     inkscape:pageshadow="2"
     inkscape:zoom="1"
     inkscape:cx="71.93658"
     inkscape:cy="238.81031"
     inkscape:current-layer="layer5"
     inkscape:document-units="px"
     showgrid="false"
     inkscape:window-width="1440"
     inkscape:window-height="852"
     inkscape:window-x="0"
     inkscape:window-y="22" />
  <metadata
     id="metadata2388">
    <rdf:RDF>
      <cc:Work
         rdf:about="">
        <dc:format>image/svg+xml</dc:format>
        <dc:type
           rdf:resource="http://purl.org/dc/dcmitype/StillImage" />
      </cc:Work>
    </rdf:RDF>
  </metadata>
  <g
     inkscape:groupmode="layer"
     id="layer5">
    <g
       style="opacity:1;fill:#ffffff;fill-opacity:1"
       id="g3817"
       mask="none"
       transform="translate(1.3669648e-2,-3.4119e-2)">
      <text
         id="text3819"
         y="282.47458"
         x="60.932507"
         style="font-size:100px;font-style:normal;font-variant:normal;font-weight:normal;font-stretch:normal;fill:#ffffff;fill-opacity:1;stroke:none;stroke-width:1px;stroke-linecap:butt;stroke-linejoin:miter;stroke-opacity:1;font-family:Courier;-inkscape-font-specification:Courier"
         xml:space="preserve"><tspan
           style="fill:#ffffff;fill-opacity:1"
           y="282.47458"
           x="60.932507"
           id="tspan3821"
           sodipodi:role="line">my</tspan></text>
      <text
         id="text3823"
         y="282.02725"
         x="181.94463"
         style="font-size:100px;font-style:normal;font-variant:normal;font-weight:normal;font-stretch:normal;fill:#ffffff;fill-opacity:1;stroke:none;stroke-width:1px;stroke-linecap:butt;stroke-linejoin:miter;stroke-opacity:1;font-family:Courier;-inkscape-font-specification:Courier"
         xml:space="preserve"><tspan
           style="fill:#ffffff;fill-opacity:1"
           y="282.02725"
           x="181.94463"
           id="tspan3825"
           sodipodi:role="line">Celtx</tspan></text>
      <path
         id="path3827"
         d="M 491.21484,278.70279 C 491.21484,277.68717 491.5664,276.85384 492.26953,276.20279 C 492.98567,275.55175 493.91015,275.22623 495.04297,275.22623 C 496.20181,275.22623 497.1328,275.54524 497.83594,276.18326 C 498.53905,276.82128 498.89061,277.66113 498.89062,278.70279 C 498.89061,279.74446 498.53254,280.5843 497.81641,281.22232 C 497.11327,281.86034 496.18879,282.17935 495.04297,282.17935 C 493.89712,282.17935 492.97265,281.86034 492.26953,281.22232 C 491.5664,280.5843 491.21484,279.74446 491.21484,278.70279 M 524.90625,265.03091 L 524.90625,264.95279 C 524.90623,264.52312 525.02993,264.21062 525.27734,264.01529 C 525.52472,263.80697 525.90884,263.70281 526.42969,263.70279 C 526.96352,263.70281 527.3281,263.85906 527.52344,264.17154 C 527.73175,264.48406 527.83592,265.12859 527.83594,266.10513 L 527.83594,269.73795 C 527.83592,270.21973 527.71222,270.58431 527.46484,270.8317 C 527.21743,271.06608 526.84633,271.18327 526.35156,271.18326 C 525.99998,271.18327 525.69399,271.08561 525.43359,270.89029 C 525.18618,270.68197 524.88019,270.25879 524.51562,269.62076 C 523.89061,268.56608 523.12889,267.77181 522.23047,267.23795 C 521.34504,266.69109 520.3229,266.41765 519.16406,266.41763 C 517.1328,266.41765 515.47916,267.01661 514.20312,268.21451 C 512.9401,269.41244 512.30859,270.96191 512.30859,272.86295 C 512.30859,274.80306 512.91406,276.3916 514.125,277.62857 C 515.34895,278.85253 516.91796,279.46451 518.83203,279.46451 C 519.70441,279.46451 520.53124,279.34732 521.3125,279.11295 C 522.10676,278.86555 522.85545,278.50097 523.55859,278.0192 C 523.80597,277.86295 524.138,277.62206 524.55469,277.29654 C 525.40102,276.60644 526.06509,276.26139 526.54688,276.26138 C 526.9505,276.26139 527.27602,276.3916 527.52344,276.65201 C 527.78383,276.89941 527.91404,277.22493 527.91406,277.62857 C 527.91404,278.65722 526.93748,279.71191 524.98438,280.79263 C 523.04425,281.86034 520.98045,282.3942 518.79297,282.3942 C 515.96744,282.3942 513.61067,281.48925 511.72266,279.67935 C 509.84765,277.86946 508.91015,275.61035 508.91016,272.90201 C 508.91015,270.19369 509.84765,267.93457 511.72266,266.12466 C 513.59765,264.30177 515.9414,263.39031 518.75391,263.39029 C 519.74348,263.39031 520.73306,263.52703 521.72266,263.80045 C 522.72524,264.06088 523.78644,264.47104 524.90625,265.03091 M 543.08984,279.65982 C 545.09504,279.65982 546.73566,279.02831 548.01172,277.76529 C 549.30076,276.48925 549.94529,274.86816 549.94531,272.90201 C 549.94529,270.93587 549.30076,269.31478 548.01172,268.03873 C 546.72264,266.74968 545.08202,266.10515 543.08984,266.10513 C 541.09765,266.10515 539.45702,266.74968 538.16797,268.03873 C 536.89192,269.31478 536.2539,270.93587 536.25391,272.90201 C 536.2539,274.88118 536.89192,276.50227 538.16797,277.76529 C 539.444,279.02831 541.08463,279.65982 543.08984,279.65982 M 553.34375,272.90201 C 553.34373,275.68847 552.39321,277.96712 550.49219,279.73795 C 548.59113,281.50878 546.12368,282.3942 543.08984,282.3942 C 540.069,282.3942 537.60807,281.50878 535.70703,279.73795 C 533.80599,277.96712 532.85547,275.68847 532.85547,272.90201 C 532.85547,270.11556 533.80599,267.84343 535.70703,266.0856 C 537.60807,264.31479 540.069,263.42937 543.08984,263.42935 C 546.11066,263.42937 548.5716,264.31479 550.47266,266.0856 C 552.3867,267.85645 553.34373,270.12858 553.34375,272.90201 M 574.32031,271.02701 C 574.32029,269.19108 574.15102,267.95411 573.8125,267.31607 C 573.48696,266.66504 572.92056,266.33952 572.11328,266.33951 C 571.14972,266.33952 570.3815,266.75619 569.80859,267.58951 C 569.24868,268.42285 568.96874,269.56869 568.96875,271.02701 L 568.96875,279.15201 L 569.32031,279.15201 C 570.11457,279.15201 570.64191,279.24967 570.90234,279.44498 C 571.17577,279.62727 571.31248,279.97883 571.3125,280.49966 C 571.31248,280.96842 571.20181,281.31998 570.98047,281.55435 C 570.7591,281.78873 570.42056,281.90591 569.96484,281.90591 L 567.48438,281.90591 C 566.92447,281.90591 566.54035,281.77571 566.33203,281.51529 C 566.13671,281.25487 566.03905,280.69498 566.03906,279.8356 L 566.03906,279.2692 L 566.03906,271.02701 L 566.03906,269.50357 C 566.03905,268.52702 565.8177,267.75879 565.375,267.19888 C 564.93228,266.62598 564.32681,266.33952 563.55859,266.33951 C 562.97265,266.33952 562.43228,266.5153 561.9375,266.86685 C 561.45572,267.20541 561.03906,267.71322 560.6875,268.39029 L 560.6875,279.15201 L 561.41016,279.15201 C 562.1914,279.15201 562.71874,279.24967 562.99219,279.44498 C 563.26562,279.64029 563.40234,279.99185 563.40234,280.49966 C 563.40234,281.03352 563.29166,281.40461 563.07031,281.61295 C 562.84895,281.80826 562.42577,281.90591 561.80078,281.90591 L 556.60547,281.90591 C 556.09766,281.90591 555.72005,281.79524 555.47266,281.57388 C 555.23828,281.33951 555.12109,280.98144 555.12109,280.49966 C 555.12109,279.97883 555.27083,279.62727 555.57031,279.44498 C 555.88281,279.24967 556.48177,279.15201 557.36719,279.15201 L 557.75781,279.15201 L 557.75781,266.63248 L 557.40625,266.63248 C 556.49479,266.63249 555.86979,266.52833 555.53125,266.31998 C 555.20573,266.11166 555.04297,265.74708 555.04297,265.22623 C 555.04297,264.77051 555.17318,264.43197 555.43359,264.2106 C 555.69401,263.97624 556.08463,263.85906 556.60547,263.85904 L 559.59375,263.85904 C 560.02343,263.85906 560.30338,263.93718 560.43359,264.09341 C 560.57682,264.23666 560.66145,264.54916 560.6875,265.03091 C 561.22135,264.45802 561.79426,264.03484 562.40625,263.76138 C 563.01822,263.48796 563.70832,263.35125 564.47656,263.35123 C 565.38801,263.35125 566.13671,263.55307 566.72266,263.9567 C 567.3216,264.34734 567.76431,264.9463 568.05078,265.75357 C 568.59764,264.93328 569.22915,264.32781 569.94531,263.93716 C 570.66144,263.54656 571.48175,263.35125 572.40625,263.35123 C 574.08592,263.35125 575.30988,263.89812 576.07812,264.99185 C 576.85935,266.08562 577.24998,267.85645 577.25,270.30435 L 577.25,279.15201 L 577.5625,279.15201 C 578.36977,279.15201 578.91013,279.24967 579.18359,279.44498 C 579.45701,279.64029 579.59373,279.99185 579.59375,280.49966 C 579.59373,280.96842 579.47654,281.31998 579.24219,281.55435 C 579.00779,281.78873 578.66274,281.90591 578.20703,281.90591 L 575.84375,281.90591 C 575.3229,281.90591 574.93878,281.74966 574.69141,281.43716 C 574.44399,281.12467 574.32029,280.62987 574.32031,279.95279 L 574.32031,271.02701"
         style="font-size:100px;font-style:normal;font-variant:normal;font-weight:normal;font-stretch:normal;fill:#ffffff;fill-opacity:1;stroke:none;stroke-width:1px;stroke-linecap:butt;stroke-linejoin:miter;stroke-opacity:1;font-family:Courier;-inkscape-font-specification:Courier" />
    </g>
  </g>
  <g
     id="layer1"
     inkscape:label="Layer 1"
     inkscape:groupmode="layer"
     style="opacity:1;display:inline">
    <text
       xml:space="preserve"
       style="font-size:40px;font-style:normal;font-weight:normal;fill:#000000;fill-opacity:1;stroke:none;stroke-width:1px;stroke-linecap:butt;stroke-linejoin:miter;stroke-opacity:1;font-family:Bitstream Vera Sans"
       x="137.88582"
       y="364.74158"
       id="text3515"><tspan
         sodipodi:role="line"
         id="tspan3517"
         x="137.88582"
         y="364.74158" /></text>
    <g
       id="g3704"
       mask="url(#mask3805)">
      <text
         id="text3511"
         y="282.47458"
         x="60.932507"
         style="font-size:100px;font-style:normal;font-variant:normal;font-weight:normal;font-stretch:normal;fill:url(#linearGradient3544);fill-opacity:1;stroke:none;stroke-width:1px;stroke-linecap:butt;stroke-linejoin:miter;stroke-opacity:1;font-family:Courier;-inkscape-font-specification:Courier"
         xml:space="preserve"><tspan
           style="fill:url(#linearGradient3544);fill-opacity:1"
           y="282.47458"
           x="60.932507"
           id="tspan3513"
           sodipodi:role="line">my</tspan></text>
      <text
         id="text3519"
         y="282.02725"
         x="181.94463"
         style="font-size:100px;font-style:normal;font-variant:normal;font-weight:normal;font-stretch:normal;fill:url(#linearGradient3554);fill-opacity:1;stroke:none;stroke-width:1px;stroke-linecap:butt;stroke-linejoin:miter;stroke-opacity:1;font-family:Courier;-inkscape-font-specification:Courier"
         xml:space="preserve"><tspan
           style="fill:url(#linearGradient3554);fill-opacity:1"
           y="282.02725"
           x="181.94463"
           id="tspan3521"
           sodipodi:role="line">Celtx</tspan></text>
      <path
         id="text3523"
         d="M 491.21484,278.70279 C 491.21484,277.68717 491.5664,276.85384 492.26953,276.20279 C 492.98567,275.55175 493.91015,275.22623 495.04297,275.22623 C 496.20181,275.22623 497.1328,275.54524 497.83594,276.18326 C 498.53905,276.82128 498.89061,277.66113 498.89062,278.70279 C 498.89061,279.74446 498.53254,280.5843 497.81641,281.22232 C 497.11327,281.86034 496.18879,282.17935 495.04297,282.17935 C 493.89712,282.17935 492.97265,281.86034 492.26953,281.22232 C 491.5664,280.5843 491.21484,279.74446 491.21484,278.70279 M 524.90625,265.03091 L 524.90625,264.95279 C 524.90623,264.52312 525.02993,264.21062 525.27734,264.01529 C 525.52472,263.80697 525.90884,263.70281 526.42969,263.70279 C 526.96352,263.70281 527.3281,263.85906 527.52344,264.17154 C 527.73175,264.48406 527.83592,265.12859 527.83594,266.10513 L 527.83594,269.73795 C 527.83592,270.21973 527.71222,270.58431 527.46484,270.8317 C 527.21743,271.06608 526.84633,271.18327 526.35156,271.18326 C 525.99998,271.18327 525.69399,271.08561 525.43359,270.89029 C 525.18618,270.68197 524.88019,270.25879 524.51562,269.62076 C 523.89061,268.56608 523.12889,267.77181 522.23047,267.23795 C 521.34504,266.69109 520.3229,266.41765 519.16406,266.41763 C 517.1328,266.41765 515.47916,267.01661 514.20312,268.21451 C 512.9401,269.41244 512.30859,270.96191 512.30859,272.86295 C 512.30859,274.80306 512.91406,276.3916 514.125,277.62857 C 515.34895,278.85253 516.91796,279.46451 518.83203,279.46451 C 519.70441,279.46451 520.53124,279.34732 521.3125,279.11295 C 522.10676,278.86555 522.85545,278.50097 523.55859,278.0192 C 523.80597,277.86295 524.138,277.62206 524.55469,277.29654 C 525.40102,276.60644 526.06509,276.26139 526.54688,276.26138 C 526.9505,276.26139 527.27602,276.3916 527.52344,276.65201 C 527.78383,276.89941 527.91404,277.22493 527.91406,277.62857 C 527.91404,278.65722 526.93748,279.71191 524.98438,280.79263 C 523.04425,281.86034 520.98045,282.3942 518.79297,282.3942 C 515.96744,282.3942 513.61067,281.48925 511.72266,279.67935 C 509.84765,277.86946 508.91015,275.61035 508.91016,272.90201 C 508.91015,270.19369 509.84765,267.93457 511.72266,266.12466 C 513.59765,264.30177 515.9414,263.39031 518.75391,263.39029 C 519.74348,263.39031 520.73306,263.52703 521.72266,263.80045 C 522.72524,264.06088 523.78644,264.47104 524.90625,265.03091 M 543.08984,279.65982 C 545.09504,279.65982 546.73566,279.02831 548.01172,277.76529 C 549.30076,276.48925 549.94529,274.86816 549.94531,272.90201 C 549.94529,270.93587 549.30076,269.31478 548.01172,268.03873 C 546.72264,266.74968 545.08202,266.10515 543.08984,266.10513 C 541.09765,266.10515 539.45702,266.74968 538.16797,268.03873 C 536.89192,269.31478 536.2539,270.93587 536.25391,272.90201 C 536.2539,274.88118 536.89192,276.50227 538.16797,277.76529 C 539.444,279.02831 541.08463,279.65982 543.08984,279.65982 M 553.34375,272.90201 C 553.34373,275.68847 552.39321,277.96712 550.49219,279.73795 C 548.59113,281.50878 546.12368,282.3942 543.08984,282.3942 C 540.069,282.3942 537.60807,281.50878 535.70703,279.73795 C 533.80599,277.96712 532.85547,275.68847 532.85547,272.90201 C 532.85547,270.11556 533.80599,267.84343 535.70703,266.0856 C 537.60807,264.31479 540.069,263.42937 543.08984,263.42935 C 546.11066,263.42937 548.5716,264.31479 550.47266,266.0856 C 552.3867,267.85645 553.34373,270.12858 553.34375,272.90201 M 574.32031,271.02701 C 574.32029,269.19108 574.15102,267.95411 573.8125,267.31607 C 573.48696,266.66504 572.92056,266.33952 572.11328,266.33951 C 571.14972,266.33952 570.3815,266.75619 569.80859,267.58951 C 569.24868,268.42285 568.96874,269.56869 568.96875,271.02701 L 568.96875,279.15201 L 569.32031,279.15201 C 570.11457,279.15201 570.64191,279.24967 570.90234,279.44498 C 571.17577,279.62727 571.31248,279.97883 571.3125,280.49966 C 571.31248,280.96842 571.20181,281.31998 570.98047,281.55435 C 570.7591,281.78873 570.42056,281.90591 569.96484,281.90591 L 567.48438,281.90591 C 566.92447,281.90591 566.54035,281.77571 566.33203,281.51529 C 566.13671,281.25487 566.03905,280.69498 566.03906,279.8356 L 566.03906,279.2692 L 566.03906,271.02701 L 566.03906,269.50357 C 566.03905,268.52702 565.8177,267.75879 565.375,267.19888 C 564.93228,266.62598 564.32681,266.33952 563.55859,266.33951 C 562.97265,266.33952 562.43228,266.5153 561.9375,266.86685 C 561.45572,267.20541 561.03906,267.71322 560.6875,268.39029 L 560.6875,279.15201 L 561.41016,279.15201 C 562.1914,279.15201 562.71874,279.24967 562.99219,279.44498 C 563.26562,279.64029 563.40234,279.99185 563.40234,280.49966 C 563.40234,281.03352 563.29166,281.40461 563.07031,281.61295 C 562.84895,281.80826 562.42577,281.90591 561.80078,281.90591 L 556.60547,281.90591 C 556.09766,281.90591 555.72005,281.79524 555.47266,281.57388 C 555.23828,281.33951 555.12109,280.98144 555.12109,280.49966 C 555.12109,279.97883 555.27083,279.62727 555.57031,279.44498 C 555.88281,279.24967 556.48177,279.15201 557.36719,279.15201 L 557.75781,279.15201 L 557.75781,266.63248 L 557.40625,266.63248 C 556.49479,266.63249 555.86979,266.52833 555.53125,266.31998 C 555.20573,266.11166 555.04297,265.74708 555.04297,265.22623 C 555.04297,264.77051 555.17318,264.43197 555.43359,264.2106 C 555.69401,263.97624 556.08463,263.85906 556.60547,263.85904 L 559.59375,263.85904 C 560.02343,263.85906 560.30338,263.93718 560.43359,264.09341 C 560.57682,264.23666 560.66145,264.54916 560.6875,265.03091 C 561.22135,264.45802 561.79426,264.03484 562.40625,263.76138 C 563.01822,263.48796 563.70832,263.35125 564.47656,263.35123 C 565.38801,263.35125 566.13671,263.55307 566.72266,263.9567 C 567.3216,264.34734 567.76431,264.9463 568.05078,265.75357 C 568.59764,264.93328 569.22915,264.32781 569.94531,263.93716 C 570.66144,263.54656 571.48175,263.35125 572.40625,263.35123 C 574.08592,263.35125 575.30988,263.89812 576.07812,264.99185 C 576.85935,266.08562 577.24998,267.85645 577.25,270.30435 L 577.25,279.15201 L 577.5625,279.15201 C 578.36977,279.15201 578.91013,279.24967 579.18359,279.44498 C 579.45701,279.64029 579.59373,279.99185 579.59375,280.49966 C 579.59373,280.96842 579.47654,281.31998 579.24219,281.55435 C 579.00779,281.78873 578.66274,281.90591 578.20703,281.90591 L 575.84375,281.90591 C 575.3229,281.90591 574.93878,281.74966 574.69141,281.43716 C 574.44399,281.12467 574.32029,280.62987 574.32031,279.95279 L 574.32031,271.02701"
         style="font-size:100px;font-style:normal;font-variant:normal;font-weight:normal;font-stretch:normal;fill:url(#linearGradient3535);fill-opacity:1;stroke:none;stroke-width:1px;stroke-linecap:butt;stroke-linejoin:miter;stroke-opacity:1;font-family:Courier;-inkscape-font-specification:Courier" />
    </g>
  </g>
  <g
     inkscape:groupmode="layer"
     id="layer4"
     style="opacity:1;display:none" />
</svg>
